<mxfile host="app.diagrams.net" agent="Mozilla/5.0 (Windows NT 10.0; Win64; x64) AppleWebKit/537.36 (KHTML, like Gecko) Chrome/127.0.0.0 Safari/537.36" version="24.7.6">
  <diagram name="Page-1" id="YzWixdjFyiMmHdeWSQgX">
    <mxGraphModel dx="1358" dy="1649" grid="1" gridSize="10" guides="1" tooltips="1" connect="1" arrows="1" fold="1" page="1" pageScale="1" pageWidth="850" pageHeight="1100" math="0" shadow="0">
      <root>
        <mxCell id="0" />
        <mxCell id="1" parent="0" />
        <mxCell id="KRSNNzkyQwDdJhGHvdqw-1" value="&lt;b&gt;USER&lt;/b&gt;" style="rounded=0;whiteSpace=wrap;html=1;" parent="1" vertex="1">
          <mxGeometry x="180" y="180" width="120" height="58" as="geometry" />
        </mxCell>
        <mxCell id="KRSNNzkyQwDdJhGHvdqw-2" value="USER ID" style="ellipse;whiteSpace=wrap;html=1;fillColor=#f8cecc;strokeColor=#b85450;" parent="1" vertex="1">
          <mxGeometry x="20" y="70" width="80" height="50" as="geometry" />
        </mxCell>
        <mxCell id="KRSNNzkyQwDdJhGHvdqw-5" value="" style="endArrow=none;html=1;rounded=0;entryX=0.5;entryY=1;entryDx=0;entryDy=0;exitX=0.137;exitY=0.007;exitDx=0;exitDy=0;exitPerimeter=0;" parent="1" source="KRSNNzkyQwDdJhGHvdqw-1" target="KRSNNzkyQwDdJhGHvdqw-2" edge="1">
          <mxGeometry width="50" height="50" relative="1" as="geometry">
            <mxPoint x="194" y="170" as="sourcePoint" />
            <mxPoint x="510" y="130" as="targetPoint" />
          </mxGeometry>
        </mxCell>
        <mxCell id="KRSNNzkyQwDdJhGHvdqw-6" value="Name" style="ellipse;whiteSpace=wrap;html=1;" parent="1" vertex="1">
          <mxGeometry x="110" y="50" width="80" height="50" as="geometry" />
        </mxCell>
        <mxCell id="KRSNNzkyQwDdJhGHvdqw-7" value="" style="endArrow=none;html=1;rounded=0;exitX=0.323;exitY=-0.06;exitDx=0;exitDy=0;exitPerimeter=0;entryX=0.5;entryY=1;entryDx=0;entryDy=0;" parent="1" source="KRSNNzkyQwDdJhGHvdqw-1" target="KRSNNzkyQwDdJhGHvdqw-6" edge="1">
          <mxGeometry width="50" height="50" relative="1" as="geometry">
            <mxPoint x="220" y="110" as="sourcePoint" />
            <mxPoint x="250" y="100" as="targetPoint" />
            <Array as="points">
              <mxPoint x="220" y="180" />
            </Array>
          </mxGeometry>
        </mxCell>
        <mxCell id="KRSNNzkyQwDdJhGHvdqw-8" value="Email" style="ellipse;whiteSpace=wrap;html=1;" parent="1" vertex="1">
          <mxGeometry x="230" y="20" width="85" height="50" as="geometry" />
        </mxCell>
        <mxCell id="KRSNNzkyQwDdJhGHvdqw-10" value="Password" style="ellipse;whiteSpace=wrap;html=1;" parent="1" vertex="1">
          <mxGeometry x="320" y="30" width="80" height="50" as="geometry" />
        </mxCell>
        <mxCell id="KRSNNzkyQwDdJhGHvdqw-11" value="" style="endArrow=none;html=1;rounded=0;entryX=0.5;entryY=1;entryDx=0;entryDy=0;exitX=0.5;exitY=0;exitDx=0;exitDy=0;" parent="1" source="KRSNNzkyQwDdJhGHvdqw-1" target="KRSNNzkyQwDdJhGHvdqw-8" edge="1">
          <mxGeometry width="50" height="50" relative="1" as="geometry">
            <mxPoint x="470" y="240" as="sourcePoint" />
            <mxPoint x="350" y="140" as="targetPoint" />
            <Array as="points" />
          </mxGeometry>
        </mxCell>
        <mxCell id="KRSNNzkyQwDdJhGHvdqw-12" value="" style="endArrow=none;html=1;rounded=0;entryX=0.5;entryY=1;entryDx=0;entryDy=0;exitX=0.63;exitY=0.007;exitDx=0;exitDy=0;exitPerimeter=0;" parent="1" source="KRSNNzkyQwDdJhGHvdqw-1" target="KRSNNzkyQwDdJhGHvdqw-10" edge="1">
          <mxGeometry width="50" height="50" relative="1" as="geometry">
            <mxPoint x="250" y="190" as="sourcePoint" />
            <mxPoint x="260" y="90" as="targetPoint" />
            <Array as="points" />
          </mxGeometry>
        </mxCell>
        <mxCell id="KRSNNzkyQwDdJhGHvdqw-13" value="bio" style="ellipse;whiteSpace=wrap;html=1;" parent="1" vertex="1">
          <mxGeometry x="400" y="90" width="80" height="50" as="geometry" />
        </mxCell>
        <mxCell id="KRSNNzkyQwDdJhGHvdqw-14" value="" style="endArrow=none;html=1;rounded=0;entryX=0.025;entryY=0.704;entryDx=0;entryDy=0;exitX=1;exitY=0;exitDx=0;exitDy=0;entryPerimeter=0;" parent="1" source="KRSNNzkyQwDdJhGHvdqw-1" target="KRSNNzkyQwDdJhGHvdqw-13" edge="1">
          <mxGeometry width="50" height="50" relative="1" as="geometry">
            <mxPoint x="266" y="190" as="sourcePoint" />
            <mxPoint x="370" y="90" as="targetPoint" />
            <Array as="points" />
          </mxGeometry>
        </mxCell>
        <mxCell id="KRSNNzkyQwDdJhGHvdqw-16" value="Post_Id" style="ellipse;whiteSpace=wrap;html=1;fillColor=#f8cecc;strokeColor=#b85450;" parent="1" vertex="1">
          <mxGeometry x="530" y="70" width="80" height="50" as="geometry" />
        </mxCell>
        <mxCell id="KRSNNzkyQwDdJhGHvdqw-17" value="" style="endArrow=none;html=1;rounded=0;exitX=0.437;exitY=0.007;exitDx=0;exitDy=0;exitPerimeter=0;" parent="1" source="KRSNNzkyQwDdJhGHvdqw-15" edge="1">
          <mxGeometry width="50" height="50" relative="1" as="geometry">
            <mxPoint x="690" y="180" as="sourcePoint" />
            <mxPoint x="580" y="120" as="targetPoint" />
            <Array as="points" />
          </mxGeometry>
        </mxCell>
        <mxCell id="KRSNNzkyQwDdJhGHvdqw-22" value="Content" style="ellipse;whiteSpace=wrap;html=1;" parent="1" vertex="1">
          <mxGeometry x="750" y="50" width="80" height="50" as="geometry" />
        </mxCell>
        <mxCell id="KRSNNzkyQwDdJhGHvdqw-27" value="&lt;b&gt;&lt;i&gt;User_Id(FK)&lt;/i&gt;&lt;/b&gt;" style="ellipse;whiteSpace=wrap;html=1;fillColor=#ffe6cc;strokeColor=#d79b00;" parent="1" vertex="1">
          <mxGeometry x="900" y="140" width="80" height="50" as="geometry" />
        </mxCell>
        <mxCell id="KRSNNzkyQwDdJhGHvdqw-28" value="" style="endArrow=none;html=1;rounded=0;exitX=1;exitY=0.393;exitDx=0;exitDy=0;exitPerimeter=0;entryX=0.063;entryY=0.667;entryDx=0;entryDy=0;entryPerimeter=0;" parent="1" source="KRSNNzkyQwDdJhGHvdqw-15" target="KRSNNzkyQwDdJhGHvdqw-27" edge="1">
          <mxGeometry width="50" height="50" relative="1" as="geometry">
            <mxPoint x="770" y="190" as="sourcePoint" />
            <mxPoint x="870" y="180" as="targetPoint" />
            <Array as="points" />
          </mxGeometry>
        </mxCell>
        <mxCell id="KRSNNzkyQwDdJhGHvdqw-29" value="Can Create" style="rhombus;whiteSpace=wrap;html=1;" parent="1" vertex="1">
          <mxGeometry x="440" y="235" width="80" height="80" as="geometry" />
        </mxCell>
        <mxCell id="KRSNNzkyQwDdJhGHvdqw-30" value="" style="endArrow=none;html=1;rounded=0;entryX=0;entryY=0.5;entryDx=0;entryDy=0;exitX=1;exitY=0.75;exitDx=0;exitDy=0;" parent="1" source="KRSNNzkyQwDdJhGHvdqw-1" target="KRSNNzkyQwDdJhGHvdqw-29" edge="1">
          <mxGeometry width="50" height="50" relative="1" as="geometry">
            <mxPoint x="470" y="140" as="sourcePoint" />
            <mxPoint x="520" y="90" as="targetPoint" />
          </mxGeometry>
        </mxCell>
        <mxCell id="KRSNNzkyQwDdJhGHvdqw-31" value="" style="endArrow=none;html=1;rounded=0;entryX=0;entryY=0.5;entryDx=0;entryDy=0;exitX=1;exitY=0.5;exitDx=0;exitDy=0;" parent="1" source="KRSNNzkyQwDdJhGHvdqw-29" target="KRSNNzkyQwDdJhGHvdqw-15" edge="1">
          <mxGeometry width="50" height="50" relative="1" as="geometry">
            <mxPoint x="520" y="270" as="sourcePoint" />
            <mxPoint x="630" y="230" as="targetPoint" />
          </mxGeometry>
        </mxCell>
        <mxCell id="KRSNNzkyQwDdJhGHvdqw-33" value="&lt;b&gt;COMMENT&lt;/b&gt;" style="rounded=0;whiteSpace=wrap;html=1;" parent="1" vertex="1">
          <mxGeometry x="680" y="438" width="120" height="60" as="geometry" />
        </mxCell>
        <mxCell id="KRSNNzkyQwDdJhGHvdqw-35" value="Comment ID" style="ellipse;whiteSpace=wrap;html=1;fillColor=#f8cecc;strokeColor=#b85450;" parent="1" vertex="1">
          <mxGeometry x="550" y="317.5" width="80" height="50" as="geometry" />
        </mxCell>
        <mxCell id="KRSNNzkyQwDdJhGHvdqw-37" value="Comment&lt;div&gt;Content&lt;/div&gt;" style="ellipse;whiteSpace=wrap;html=1;" parent="1" vertex="1">
          <mxGeometry x="730" y="297.5" width="80" height="45" as="geometry" />
        </mxCell>
        <mxCell id="KRSNNzkyQwDdJhGHvdqw-38" value="&lt;b&gt;&lt;i&gt;Post ID&lt;/i&gt;&lt;/b&gt;" style="ellipse;whiteSpace=wrap;html=1;fillColor=#ffe6cc;strokeColor=#d79b00;" parent="1" vertex="1">
          <mxGeometry x="810" y="330" width="80" height="55" as="geometry" />
        </mxCell>
        <mxCell id="KRSNNzkyQwDdJhGHvdqw-39" value="&lt;b&gt;&lt;i&gt;User ID&lt;/i&gt;&lt;/b&gt;" style="ellipse;whiteSpace=wrap;html=1;fillColor=#ffe6cc;strokeColor=#d79b00;" parent="1" vertex="1">
          <mxGeometry x="630" y="295" width="80" height="50" as="geometry" />
        </mxCell>
        <mxCell id="KRSNNzkyQwDdJhGHvdqw-44" value="" style="endArrow=none;html=1;rounded=0;exitX=0.25;exitY=0;exitDx=0;exitDy=0;" parent="1" source="KRSNNzkyQwDdJhGHvdqw-33" target="KRSNNzkyQwDdJhGHvdqw-35" edge="1">
          <mxGeometry width="50" height="50" relative="1" as="geometry">
            <mxPoint x="600" y="390" as="sourcePoint" />
            <mxPoint x="648" y="382" as="targetPoint" />
          </mxGeometry>
        </mxCell>
        <mxCell id="KRSNNzkyQwDdJhGHvdqw-49" value="" style="endArrow=none;html=1;rounded=0;entryX=0;entryY=1;entryDx=0;entryDy=0;exitX=0.75;exitY=0;exitDx=0;exitDy=0;" parent="1" source="KRSNNzkyQwDdJhGHvdqw-33" target="KRSNNzkyQwDdJhGHvdqw-38" edge="1">
          <mxGeometry width="50" height="50" relative="1" as="geometry">
            <mxPoint x="730" y="410" as="sourcePoint" />
            <mxPoint x="737" y="374" as="targetPoint" />
          </mxGeometry>
        </mxCell>
        <mxCell id="KRSNNzkyQwDdJhGHvdqw-50" value="" style="endArrow=none;html=1;rounded=0;exitX=0.333;exitY=0;exitDx=0;exitDy=0;exitPerimeter=0;" parent="1" source="KRSNNzkyQwDdJhGHvdqw-33" target="KRSNNzkyQwDdJhGHvdqw-39" edge="1">
          <mxGeometry width="50" height="50" relative="1" as="geometry">
            <mxPoint x="666" y="430" as="sourcePoint" />
            <mxPoint x="680" y="343" as="targetPoint" />
            <Array as="points" />
          </mxGeometry>
        </mxCell>
        <mxCell id="KRSNNzkyQwDdJhGHvdqw-51" value="" style="endArrow=none;html=1;rounded=0;entryX=0.5;entryY=1;entryDx=0;entryDy=0;" parent="1" source="KRSNNzkyQwDdJhGHvdqw-33" target="KRSNNzkyQwDdJhGHvdqw-37" edge="1">
          <mxGeometry width="50" height="50" relative="1" as="geometry">
            <mxPoint x="780" y="440" as="sourcePoint" />
            <mxPoint x="841" y="402" as="targetPoint" />
          </mxGeometry>
        </mxCell>
        <mxCell id="KRSNNzkyQwDdJhGHvdqw-52" value="has" style="rhombus;whiteSpace=wrap;html=1;" parent="1" vertex="1">
          <mxGeometry x="260" y="420" width="90" height="90" as="geometry" />
        </mxCell>
        <mxCell id="KRSNNzkyQwDdJhGHvdqw-54" value="" style="endArrow=none;html=1;rounded=0;entryX=0;entryY=0.5;entryDx=0;entryDy=0;exitX=1;exitY=0.5;exitDx=0;exitDy=0;" parent="1" source="KRSNNzkyQwDdJhGHvdqw-52" target="KRSNNzkyQwDdJhGHvdqw-33" edge="1">
          <mxGeometry width="50" height="50" relative="1" as="geometry">
            <mxPoint x="470" y="340" as="sourcePoint" />
            <mxPoint x="520" y="290" as="targetPoint" />
          </mxGeometry>
        </mxCell>
        <mxCell id="KRSNNzkyQwDdJhGHvdqw-56" value="" style="endArrow=none;html=1;rounded=0;exitX=0.5;exitY=0;exitDx=0;exitDy=0;" parent="1" source="KRSNNzkyQwDdJhGHvdqw-52" target="KRSNNzkyQwDdJhGHvdqw-1" edge="1">
          <mxGeometry width="50" height="50" relative="1" as="geometry">
            <mxPoint x="470" y="340" as="sourcePoint" />
            <mxPoint x="420" y="330" as="targetPoint" />
          </mxGeometry>
        </mxCell>
        <mxCell id="KRSNNzkyQwDdJhGHvdqw-58" value="have" style="rhombus;whiteSpace=wrap;html=1;" parent="1" vertex="1">
          <mxGeometry x="955" y="270" width="80" height="80" as="geometry" />
        </mxCell>
        <mxCell id="KRSNNzkyQwDdJhGHvdqw-61" value="" style="endArrow=none;html=1;rounded=0;entryX=0.5;entryY=1;entryDx=0;entryDy=0;exitX=1;exitY=0.5;exitDx=0;exitDy=0;" parent="1" source="KRSNNzkyQwDdJhGHvdqw-33" target="KRSNNzkyQwDdJhGHvdqw-58" edge="1">
          <mxGeometry width="50" height="50" relative="1" as="geometry">
            <mxPoint x="680" y="440" as="sourcePoint" />
            <mxPoint x="730" y="390" as="targetPoint" />
          </mxGeometry>
        </mxCell>
        <mxCell id="KRSNNzkyQwDdJhGHvdqw-63" value="category ID" style="ellipse;whiteSpace=wrap;html=1;fillColor=#f8cecc;strokeColor=#b85450;" parent="1" vertex="1">
          <mxGeometry x="700" y="-270" width="80" height="50" as="geometry" />
        </mxCell>
        <mxCell id="KRSNNzkyQwDdJhGHvdqw-64" value="Title" style="ellipse;whiteSpace=wrap;html=1;" parent="1" vertex="1">
          <mxGeometry x="840" y="-270" width="80" height="50" as="geometry" />
        </mxCell>
        <mxCell id="KRSNNzkyQwDdJhGHvdqw-66" value="" style="endArrow=none;html=1;rounded=0;entryX=0.61;entryY=0.952;entryDx=0;entryDy=0;entryPerimeter=0;exitX=0.42;exitY=0.04;exitDx=0;exitDy=0;exitPerimeter=0;" parent="1" source="KRSNNzkyQwDdJhGHvdqw-62" target="KRSNNzkyQwDdJhGHvdqw-63" edge="1">
          <mxGeometry width="50" height="50" relative="1" as="geometry">
            <mxPoint x="780" y="-180" as="sourcePoint" />
            <mxPoint x="660" y="-90" as="targetPoint" />
          </mxGeometry>
        </mxCell>
        <mxCell id="KRSNNzkyQwDdJhGHvdqw-67" value="" style="endArrow=none;html=1;rounded=0;entryX=0.365;entryY=0.984;entryDx=0;entryDy=0;exitX=0.6;exitY=-0.013;exitDx=0;exitDy=0;entryPerimeter=0;exitPerimeter=0;" parent="1" source="KRSNNzkyQwDdJhGHvdqw-62" target="KRSNNzkyQwDdJhGHvdqw-64" edge="1">
          <mxGeometry width="50" height="50" relative="1" as="geometry">
            <mxPoint x="714" y="-140" as="sourcePoint" />
            <mxPoint x="679" y="-222" as="targetPoint" />
            <Array as="points" />
          </mxGeometry>
        </mxCell>
        <mxCell id="KRSNNzkyQwDdJhGHvdqw-68" value="conatins" style="rhombus;whiteSpace=wrap;html=1;" parent="1" vertex="1">
          <mxGeometry x="845" y="-70" width="110" height="80" as="geometry" />
        </mxCell>
        <mxCell id="KRSNNzkyQwDdJhGHvdqw-71" value="" style="endArrow=none;html=1;rounded=0;entryX=0;entryY=0.5;entryDx=0;entryDy=0;" parent="1" source="KRSNNzkyQwDdJhGHvdqw-62" target="KRSNNzkyQwDdJhGHvdqw-68" edge="1">
          <mxGeometry width="50" height="50" relative="1" as="geometry">
            <mxPoint x="770" y="-90" as="sourcePoint" />
            <mxPoint x="660" y="10" as="targetPoint" />
            <Array as="points" />
          </mxGeometry>
        </mxCell>
        <mxCell id="KRSNNzkyQwDdJhGHvdqw-72" value="&lt;font style=&quot;font-size: 14px;&quot;&gt;&lt;b&gt;1&lt;/b&gt;&lt;/font&gt;" style="text;html=1;align=center;verticalAlign=middle;resizable=0;points=[];autosize=1;strokeColor=none;fillColor=none;" parent="1" vertex="1">
          <mxGeometry x="365" y="228" width="30" height="30" as="geometry" />
        </mxCell>
        <mxCell id="KRSNNzkyQwDdJhGHvdqw-73" value="&lt;font style=&quot;font-size: 14px;&quot;&gt;&lt;b&gt;n&lt;/b&gt;&lt;/font&gt;" style="text;html=1;align=center;verticalAlign=middle;resizable=0;points=[];autosize=1;strokeColor=none;fillColor=none;" parent="1" vertex="1">
          <mxGeometry x="575" y="208" width="30" height="30" as="geometry" />
        </mxCell>
        <mxCell id="KRSNNzkyQwDdJhGHvdqw-75" value="&lt;font style=&quot;font-size: 14px;&quot;&gt;&lt;b&gt;n&lt;/b&gt;&lt;/font&gt;" style="text;html=1;align=center;verticalAlign=middle;resizable=0;points=[];autosize=1;strokeColor=none;fillColor=none;" parent="1" vertex="1">
          <mxGeometry x="475" y="438" width="30" height="30" as="geometry" />
        </mxCell>
        <mxCell id="KRSNNzkyQwDdJhGHvdqw-77" value="&lt;font style=&quot;font-size: 14px;&quot;&gt;&lt;b&gt;n&lt;/b&gt;&lt;/font&gt;" style="text;html=1;align=center;verticalAlign=middle;resizable=0;points=[];autosize=1;strokeColor=none;fillColor=none;" parent="1" vertex="1">
          <mxGeometry x="920" y="385" width="30" height="30" as="geometry" />
        </mxCell>
        <mxCell id="6bkKNlqZMj2vOyzmDorU-2" value="Title" style="ellipse;whiteSpace=wrap;html=1;" parent="1" vertex="1">
          <mxGeometry x="650" y="40" width="80" height="50" as="geometry" />
        </mxCell>
        <mxCell id="vtl2t9i5ODky86zJAKo6-3" value="" style="endArrow=none;html=1;rounded=0;entryX=0.5;entryY=1;entryDx=0;entryDy=0;exitX=0.43;exitY=-0.007;exitDx=0;exitDy=0;exitPerimeter=0;" parent="1" source="KRSNNzkyQwDdJhGHvdqw-15" target="6bkKNlqZMj2vOyzmDorU-2" edge="1">
          <mxGeometry width="50" height="50" relative="1" as="geometry">
            <mxPoint x="690" y="170" as="sourcePoint" />
            <mxPoint x="590" y="130" as="targetPoint" />
            <Array as="points" />
          </mxGeometry>
        </mxCell>
        <mxCell id="vtl2t9i5ODky86zJAKo6-4" value="image" style="ellipse;whiteSpace=wrap;html=1;" parent="1" vertex="1">
          <mxGeometry x="895" y="60" width="80" height="50" as="geometry" />
        </mxCell>
        <mxCell id="vtl2t9i5ODky86zJAKo6-5" value="" style="endArrow=none;html=1;rounded=0;exitX=1;exitY=0.25;exitDx=0;exitDy=0;" parent="1" source="KRSNNzkyQwDdJhGHvdqw-15" target="vtl2t9i5ODky86zJAKo6-4" edge="1">
          <mxGeometry width="50" height="50" relative="1" as="geometry">
            <mxPoint x="730" y="190" as="sourcePoint" />
            <mxPoint x="788" y="118" as="targetPoint" />
            <Array as="points" />
          </mxGeometry>
        </mxCell>
        <mxCell id="vtl2t9i5ODky86zJAKo6-6" value="" style="endArrow=none;html=1;rounded=0;entryX=0.5;entryY=1;entryDx=0;entryDy=0;exitX=1;exitY=0;exitDx=0;exitDy=0;" parent="1" source="KRSNNzkyQwDdJhGHvdqw-15" target="KRSNNzkyQwDdJhGHvdqw-68" edge="1">
          <mxGeometry width="50" height="50" relative="1" as="geometry">
            <mxPoint x="770" y="205" as="sourcePoint" />
            <mxPoint x="890" y="135" as="targetPoint" />
            <Array as="points" />
          </mxGeometry>
        </mxCell>
        <mxCell id="vtl2t9i5ODky86zJAKo6-7" value="&lt;b&gt;&lt;font style=&quot;font-size: 14px;&quot;&gt;n&lt;/font&gt;&lt;/b&gt;" style="text;html=1;align=center;verticalAlign=middle;resizable=0;points=[];autosize=1;strokeColor=none;fillColor=none;" parent="1" vertex="1">
          <mxGeometry x="870" y="30" width="30" height="30" as="geometry" />
        </mxCell>
        <mxCell id="vtl2t9i5ODky86zJAKo6-11" value="&lt;b&gt;&lt;i&gt;Category_id&lt;/i&gt;&lt;/b&gt;" style="ellipse;whiteSpace=wrap;html=1;fillColor=#ffe6cc;strokeColor=#d79b00;" parent="1" vertex="1">
          <mxGeometry x="990" y="178" width="80" height="50" as="geometry" />
        </mxCell>
        <mxCell id="vtl2t9i5ODky86zJAKo6-12" value="" style="endArrow=none;html=1;rounded=0;" parent="1" source="KRSNNzkyQwDdJhGHvdqw-15" target="vtl2t9i5ODky86zJAKo6-11" edge="1">
          <mxGeometry width="50" height="50" relative="1" as="geometry">
            <mxPoint x="770" y="214" as="sourcePoint" />
            <mxPoint x="840" y="214" as="targetPoint" />
            <Array as="points" />
          </mxGeometry>
        </mxCell>
        <mxCell id="KRSNNzkyQwDdJhGHvdqw-62" value="&lt;b&gt;CATEGORY&lt;/b&gt;" style="rounded=0;whiteSpace=wrap;html=1;" parent="1" vertex="1">
          <mxGeometry x="750" y="-170" width="120" height="60" as="geometry" />
        </mxCell>
        <mxCell id="vtl2t9i5ODky86zJAKo6-17" value="&lt;font style=&quot;font-size: 14px;&quot;&gt;&lt;b&gt;1&lt;/b&gt;&lt;/font&gt;" style="text;html=1;align=center;verticalAlign=middle;resizable=0;points=[];autosize=1;strokeColor=none;fillColor=none;" parent="1" vertex="1">
          <mxGeometry x="800" y="-80" width="30" height="30" as="geometry" />
        </mxCell>
        <mxCell id="vtl2t9i5ODky86zJAKo6-18" value="&lt;font style=&quot;font-size: 14px;&quot;&gt;&lt;b&gt;1&lt;/b&gt;&lt;/font&gt;" style="text;html=1;align=center;verticalAlign=middle;resizable=0;points=[];autosize=1;strokeColor=none;fillColor=none;" parent="1" vertex="1">
          <mxGeometry x="235" y="295" width="30" height="30" as="geometry" />
        </mxCell>
        <mxCell id="ucdUnWecr_0EwQhlc-JR-1" value="&lt;b&gt;ROLE&lt;/b&gt;" style="rounded=0;whiteSpace=wrap;html=1;" parent="1" vertex="1">
          <mxGeometry x="130" y="-180" width="120" height="60" as="geometry" />
        </mxCell>
        <mxCell id="ucdUnWecr_0EwQhlc-JR-4" value="" style="endArrow=none;html=1;rounded=0;entryX=0.628;entryY=0.016;entryDx=0;entryDy=0;entryPerimeter=0;exitX=0.5;exitY=1;exitDx=0;exitDy=0;" parent="1" source="ucdUnWecr_0EwQhlc-JR-20" target="ucdUnWecr_0EwQhlc-JR-1" edge="1">
          <mxGeometry width="50" height="50" relative="1" as="geometry">
            <mxPoint x="275" y="-210" as="sourcePoint" />
            <mxPoint x="220" y="-140" as="targetPoint" />
          </mxGeometry>
        </mxCell>
        <mxCell id="ucdUnWecr_0EwQhlc-JR-5" value="" style="endArrow=none;html=1;rounded=0;entryX=0.342;entryY=0;entryDx=0;entryDy=0;entryPerimeter=0;exitX=0.62;exitY=0.968;exitDx=0;exitDy=0;exitPerimeter=0;" parent="1" source="ucdUnWecr_0EwQhlc-JR-22" target="ucdUnWecr_0EwQhlc-JR-1" edge="1">
          <mxGeometry width="50" height="50" relative="1" as="geometry">
            <mxPoint x="127.6" y="-200" as="sourcePoint" />
            <mxPoint x="180.00000000000009" y="-140" as="targetPoint" />
          </mxGeometry>
        </mxCell>
        <mxCell id="ucdUnWecr_0EwQhlc-JR-6" value="" style="endArrow=none;html=1;rounded=0;exitX=0.5;exitY=0;exitDx=0;exitDy=0;" parent="1" source="KRSNNzkyQwDdJhGHvdqw-15" target="KRSNNzkyQwDdJhGHvdqw-22" edge="1">
          <mxGeometry width="50" height="50" relative="1" as="geometry">
            <mxPoint x="690" y="180" as="sourcePoint" />
            <mxPoint x="752" y="100" as="targetPoint" />
            <Array as="points" />
          </mxGeometry>
        </mxCell>
        <mxCell id="KRSNNzkyQwDdJhGHvdqw-15" value="&lt;b&gt;POST/BLOG&lt;/b&gt;" style="rounded=0;whiteSpace=wrap;html=1;" parent="1" vertex="1">
          <mxGeometry x="660" y="168" width="120" height="60" as="geometry" />
        </mxCell>
        <mxCell id="ucdUnWecr_0EwQhlc-JR-11" value="" style="endArrow=none;html=1;rounded=0;entryX=0.5;entryY=0;entryDx=0;entryDy=0;exitX=0.5;exitY=1;exitDx=0;exitDy=0;" parent="1" source="KRSNNzkyQwDdJhGHvdqw-15" target="KRSNNzkyQwDdJhGHvdqw-58" edge="1">
          <mxGeometry width="50" height="50" relative="1" as="geometry">
            <mxPoint x="730" y="226" as="sourcePoint" />
            <mxPoint x="1000" y="212" as="targetPoint" />
            <Array as="points" />
          </mxGeometry>
        </mxCell>
        <mxCell id="ucdUnWecr_0EwQhlc-JR-12" value="&lt;font style=&quot;font-size: 14px;&quot;&gt;&lt;b&gt;1&lt;/b&gt;&lt;/font&gt;" style="text;html=1;align=center;verticalAlign=middle;resizable=0;points=[];autosize=1;strokeColor=none;fillColor=none;" parent="1" vertex="1">
          <mxGeometry x="855" y="248" width="30" height="30" as="geometry" />
        </mxCell>
        <mxCell id="ucdUnWecr_0EwQhlc-JR-20" value="Role Name" style="ellipse;whiteSpace=wrap;html=1;" parent="1" vertex="1">
          <mxGeometry x="220" y="-280" width="80" height="50" as="geometry" />
        </mxCell>
        <mxCell id="ucdUnWecr_0EwQhlc-JR-22" value="Role Id" style="ellipse;whiteSpace=wrap;html=1;fillColor=#f8cecc;strokeColor=#b85450;" parent="1" vertex="1">
          <mxGeometry x="80" y="-270" width="80" height="50" as="geometry" />
        </mxCell>
        <mxCell id="UziVbp1F8elOvaX8DZIV-1" value="has" style="rhombus;whiteSpace=wrap;html=1;" vertex="1" parent="1">
          <mxGeometry x="135" y="-70" width="110" height="80" as="geometry" />
        </mxCell>
        <mxCell id="UziVbp1F8elOvaX8DZIV-2" value="" style="endArrow=none;html=1;rounded=0;entryX=0.5;entryY=1;entryDx=0;entryDy=0;exitX=0.41;exitY=0;exitDx=0;exitDy=0;exitPerimeter=0;" edge="1" parent="1" source="KRSNNzkyQwDdJhGHvdqw-1" target="UziVbp1F8elOvaX8DZIV-1">
          <mxGeometry width="50" height="50" relative="1" as="geometry">
            <mxPoint x="230" y="169" as="sourcePoint" />
            <mxPoint x="210" y="20" as="targetPoint" />
            <Array as="points" />
          </mxGeometry>
        </mxCell>
        <mxCell id="UziVbp1F8elOvaX8DZIV-8" value="" style="endArrow=none;html=1;rounded=0;entryX=0.5;entryY=0;entryDx=0;entryDy=0;exitX=0.5;exitY=1;exitDx=0;exitDy=0;" edge="1" parent="1" source="ucdUnWecr_0EwQhlc-JR-1" target="UziVbp1F8elOvaX8DZIV-1">
          <mxGeometry width="50" height="50" relative="1" as="geometry">
            <mxPoint x="530" y="-100" as="sourcePoint" />
            <mxPoint x="855" y="-20" as="targetPoint" />
            <Array as="points" />
          </mxGeometry>
        </mxCell>
        <mxCell id="UziVbp1F8elOvaX8DZIV-9" value="&lt;font style=&quot;font-size: 14px;&quot;&gt;&lt;b&gt;n&lt;/b&gt;&lt;/font&gt;" style="text;html=1;align=center;verticalAlign=middle;resizable=0;points=[];autosize=1;strokeColor=none;fillColor=none;" vertex="1" parent="1">
          <mxGeometry x="185" y="-112" width="30" height="30" as="geometry" />
        </mxCell>
        <mxCell id="UziVbp1F8elOvaX8DZIV-10" value="&lt;font style=&quot;font-size: 14px;&quot;&gt;&lt;b&gt;n&lt;/b&gt;&lt;/font&gt;" style="text;html=1;align=center;verticalAlign=middle;resizable=0;points=[];autosize=1;strokeColor=none;fillColor=none;" vertex="1" parent="1">
          <mxGeometry x="195" y="38" width="30" height="30" as="geometry" />
        </mxCell>
      </root>
    </mxGraphModel>
  </diagram>
</mxfile>
